<?xml version="1.0" standalone="no"?>
<!DOCTYPE svg PUBLIC "-//W3C//DTD SVG 20010904//EN"
 "http://www.w3.org/TR/2001/REC-SVG-20010904/DTD/svg10.dtd">
<svg version="1.0" xmlns="http://www.w3.org/2000/svg"
 width="612.000000pt" height="408.000000pt" viewBox="0 0 612.000000 408.000000"
 preserveAspectRatio="xMidYMid meet">

<g transform="translate(0.000000,408.000000) scale(0.100000,-0.100000)"
fill="#ec222c" stroke="none">
<path d="M1135 3760 c-14 -22 -25 -44 -25 -50 0 -5 -7 -10 -15 -10 -13 0 -19
-12 -16 -32 0 -4 -15 -23 -34 -42 -39 -39 -106 -56 -153 -38 -15 6 -45 14 -67
18 -22 4 -45 11 -52 16 -6 5 -23 6 -37 2 -46 -11 -36 -35 68 -159 63 -75 61
-167 -5 -238 -10 -12 -19 -25 -19 -31 0 -5 -6 -17 -14 -25 -23 -26 -31 -70
-13 -77 8 -3 57 11 108 31 77 30 103 36 141 31 61 -7 75 -17 150 -104 45 -53
68 -72 82 -70 20 3 21 8 18 114 -3 86 0 118 12 141 17 33 80 93 98 93 7 0 42
12 80 28 55 22 68 31 68 49 0 15 -7 24 -22 27 -13 3 -35 7 -50 10 -15 3 -33
13 -41 21 -10 9 -26 13 -44 10 -35 -7 -86 23 -112 66 -15 24 -18 45 -15 92 3
44 1 55 -5 37 -7 -19 -9 -10 -10 41 -1 97 -33 118 -76 49z"/>
<path d="M1221 3774 c0 -11 3 -14 6 -6 3 7 2 16 -1 19 -3 4 -6 -2 -5 -13z"/>
<path d="M1857 3017 c-32 -70 -109 -153 -201 -218 -86 -61 -98 -62 -90 -10 12
73 -36 150 -102 167 -100 25 -197 -82 -164 -181 12 -36 54 -79 88 -90 35 -10
27 -21 -40 -57 -127 -67 -223 -183 -262 -317 -30 -103 -21 -110 34 -28 47 70
129 155 171 178 27 14 36 -12 44 -122 8 -100 -4 -228 -31 -334 -17 -67 -94
-234 -120 -259 -32 -32 -5 -28 49 8 60 40 116 97 172 175 56 77 70 67 36 -24
-31 -84 -58 -138 -85 -174 -14 -19 -24 -37 -21 -39 9 -10 107 63 154 114 67
73 170 257 171 304 0 23 20 40 47 40 33 0 43 29 43 124 0 112 -22 214 -66 306
l-37 74 24 16 c44 28 130 124 159 178 29 53 66 190 58 214 -3 7 -16 -13 -31
-45z"/>
<path d="M467 2964 c-4 -4 -7 -17 -7 -28 1 -19 1 -20 11 -3 11 19 8 43 -4 31z"/>
<path d="M2043 2915 c-57 -25 -90 -105 -63 -156 26 -48 149 -77 229 -53 66 19
101 61 101 118 0 46 -12 62 -67 90 -40 20 -155 21 -200 1z"/>
<path d="M3040 2890 c-14 -5 -79 -25 -145 -45 -66 -21 -124 -41 -129 -46 -5
-4 -15 -45 -22 -90 -8 -46 -18 -87 -23 -92 -5 -5 -26 0 -52 14 -91 47 -209 21
-286 -65 -97 -107 -141 -332 -89 -456 47 -112 158 -160 256 -110 43 22 70 26
70 10 0 -16 310 -13 314 3 2 6 18 95 36 197 18 102 52 295 76 430 24 135 44
248 44 253 0 9 -18 8 -50 -3z m-361 -439 c13 -8 12 -25 -3 -128 -19 -123 -27
-143 -56 -143 -38 0 -52 34 -48 112 4 81 29 145 62 158 27 11 28 11 45 1z"/>
<path d="M910 2859 c0 -5 5 -7 10 -4 6 3 10 8 10 11 0 2 -4 4 -10 4 -5 0 -10
-5 -10 -11z"/>
<path d="M1270 2676 c0 -2 7 -6 15 -10 8 -3 15 -1 15 4 0 6 -7 10 -15 10 -8 0
-15 -2 -15 -4z"/>
<path d="M666 2652 c-6 -11 38 -36 53 -31 7 3 -2 12 -18 22 -16 9 -32 13 -35
9z"/>
<path d="M3364 2650 c-72 -11 -153 -50 -201 -97 -111 -109 -143 -307 -71 -435
53 -95 190 -145 371 -135 90 4 198 25 213 39 2 3 -3 40 -12 82 -17 75 -18 77
-43 72 -50 -12 -179 -19 -215 -12 -43 8 -76 37 -76 66 0 19 7 20 194 20 123 0
197 4 201 10 4 6 9 43 12 83 11 141 -48 252 -154 289 -60 21 -152 29 -219 18z
m110 -189 c10 -11 16 -30 14 -43 -3 -21 -9 -23 -67 -26 -71 -3 -89 5 -72 36
29 54 91 71 125 33z"/>
<path d="M4285 2646 c-27 -7 -60 -18 -71 -24 -18 -9 -24 -9 -34 3 -10 12 -43
15 -164 15 l-153 0 -21 -112 c-12 -62 -35 -194 -52 -293 -16 -99 -33 -192 -36
-207 l-6 -28 156 0 c97 0 156 4 156 10 0 6 -38 10 -92 11 -51 1 -97 2 -103 4
-5 1 -16 3 -22 3 -18 3 -16 39 7 167 11 61 29 164 41 230 11 66 26 126 32 133
8 10 47 13 161 13 83 -1 181 2 218 5 56 5 74 3 112 -15 83 -41 92 -100 51
-339 -29 -166 -34 -184 -48 -193 -5 -4 -63 -5 -128 -2 -102 3 -119 2 -119 -12
0 -13 22 -15 154 -15 l154 0 16 88 c63 352 69 395 55 446 -12 45 -40 81 -79
101 -39 19 -129 25 -185 11z"/>
<path d="M4855 2654 c-27 -3 -74 -9 -104 -15 l-53 -11 7 -81 c4 -45 8 -85 11
-88 2 -3 25 -2 51 2 26 4 80 8 119 8 56 1 74 -3 87 -17 18 -19 23 -67 9 -76
-5 -3 -39 2 -77 11 -144 33 -273 -21 -314 -132 -45 -121 -15 -222 78 -261 48
-20 101 -17 175 10 55 20 68 21 77 10 9 -11 45 -14 150 -14 77 0 139 2 139 4
0 2 5 28 11 57 59 305 73 445 47 492 -18 34 -54 62 -106 80 -48 17 -214 28
-307 21z m103 -440 c3 -46 -15 -74 -49 -74 -38 0 -59 19 -59 52 0 45 26 70 69
66 34 -3 36 -5 39 -44z"/>
<path d="M830 2630 c-12 -8 -11 -10 8 -10 12 0 22 5 22 10 0 13 -11 13 -30 0z"/>
<path d="M1926 2483 c-15 -87 -39 -221 -52 -298 -14 -77 -27 -150 -30 -163
l-5 -23 158 3 157 3 33 175 c51 277 73 411 73 436 l0 24 -153 0 -153 0 -28
-157z"/>
<path d="M4260 2533 c-8 -3 -30 -12 -49 -21 -31 -14 -35 -14 -46 1 -10 14 -30
17 -113 17 l-101 0 -6 -37 c-4 -21 -11 -60 -16 -88 -5 -27 -16 -90 -24 -140
-9 -49 -20 -109 -26 -132 -17 -76 -19 -74 78 -71 l87 3 8 40 c43 246 53 289
69 309 23 29 59 39 93 26 48 -18 50 -41 18 -210 -16 -85 -26 -159 -22 -163 4
-4 47 -7 96 -5 l88 3 24 125 c29 157 38 270 24 297 -22 41 -125 67 -182 46z"/>
<path d="M746 2032 c-3 -6 -1 -14 5 -17 15 -10 25 3 12 16 -7 7 -13 7 -17 1z"/>
<path d="M1840 1880 c0 -27 3 -50 8 -50 16 -1 2089 -1 2715 0 l667 0 0 50 0
50 -1695 0 -1695 0 0 -50z"/>
<path d="M1040 1742 c0 -12 19 -26 26 -19 2 2 -2 10 -11 17 -9 8 -15 8 -15 2z"/>
<path d="M895 1710 c3 -5 11 -10 16 -10 6 0 7 5 4 10 -3 6 -11 10 -16 10 -6 0
-7 -4 -4 -10z"/>
<path d="M2080 1591 c0 -47 12 -72 24 -52 4 5 2 12 -4 16 -14 8 -13 48 2 63
15 15 48 -3 48 -28 0 -10 -8 -26 -17 -35 -16 -16 -15 -17 3 -13 13 2 20 13 22
36 4 42 -12 62 -49 62 -28 0 -29 -2 -29 -49z"/>
<path d="M4215 1604 c-22 -52 -20 -67 5 -52 16 10 24 10 40 0 24 -15 25 -4 6
42 -20 49 -33 52 -51 10z m35 -20 c0 -16 -16 -19 -25 -4 -8 13 4 32 16 25 5
-4 9 -13 9 -21z"/>
<path d="M2521 1585 c1 -48 1 -49 9 -15 5 19 4 41 0 50 -6 10 -9 -1 -9 -35z"/>
<path d="M2894 1618 c-12 -20 -10 -78 4 -78 8 0 12 16 12 45 0 46 -4 54 -16
33z"/>
<path d="M3071 1583 c1 -27 3 -39 6 -28 8 34 20 37 41 11 11 -14 23 -26 26
-26 3 0 5 21 5 48 -1 29 -4 36 -6 20 -5 -34 -10 -35 -35 -3 -29 37 -38 31 -37
-22z"/>
<path d="M3601 1583 c1 -27 4 -38 6 -25 2 12 11 22 19 22 17 0 18 22 2 38 -22
22 -28 13 -27 -35z"/>
<path d="M3672 1613 c-1 -12 -10 -26 -19 -32 -17 -9 -17 -11 -1 -27 24 -24 30
-14 25 37 -2 24 -4 34 -5 22z"/>
<path d="M4364 1618 c-12 -20 -10 -78 4 -78 8 0 12 16 12 45 0 46 -4 54 -16
33z"/>
<path d="M4505 1591 c0 -22 4 -43 8 -47 4 -4 7 14 7 39 0 26 -3 47 -7 47 -5 0
-8 -18 -8 -39z"/>
<path d="M4997 1613 c-6 -11 4 -73 12 -73 3 0 7 18 8 40 1 36 -9 52 -20 33z"/>
<path d="M2197 1595 c-18 -17 -11 -55 9 -55 8 0 11 6 8 15 -4 8 -3 23 1 33 6
15 8 14 18 -8 9 -22 11 -23 15 -6 2 10 -2 22 -10 27 -18 12 -24 11 -41 -6z"/>
<path d="M2281 1573 c1 -22 3 -29 6 -18 3 11 9 24 14 30 14 14 11 25 -6 25
-11 0 -15 -10 -14 -37z"/>
<path d="M2353 1603 c-22 -8 -16 -60 7 -66 11 -3 23 -1 26 4 3 5 -2 9 -12 9
-13 0 -15 6 -10 30 3 17 4 30 3 29 -1 0 -8 -3 -14 -6z"/>
<path d="M2465 1600 c3 -5 8 -10 11 -10 2 0 4 5 4 10 0 6 -5 10 -11 10 -5 0
-7 -4 -4 -10z"/>
<path d="M2567 1578 c8 -44 13 -48 13 -10 0 17 -4 34 -10 37 -6 4 -7 -6 -3
-27z"/>
<path d="M2621 1596 c-16 -19 -11 -48 9 -54 12 -4 12 -2 3 8 -9 9 -9 19 -2 32
13 25 6 34 -10 14z"/>
<path d="M2661 1592 c10 -17 10 -23 0 -36 -11 -14 -11 -16 3 -16 13 0 17 7 14
32 -2 17 -9 33 -16 36 -11 3 -11 0 -1 -16z"/>
<path d="M2713 1594 c-3 -8 3 -21 13 -29 18 -14 18 -14 1 -15 -10 0 -16 -4
-13 -9 10 -15 58 0 52 16 -3 8 -6 17 -6 19 0 2 -8 4 -17 4 -14 0 -15 2 -5 9
11 7 10 9 -3 14 -9 4 -18 1 -22 -9z"/>
<path d="M2844 1596 c-8 -20 -1 -49 11 -53 6 -2 10 13 10 32 0 36 -11 47 -21
21z"/>
<path d="M2940 1591 c-5 -11 -7 -26 -4 -35 7 -20 35 -29 48 -16 7 7 5 10 -7
10 -16 0 -22 16 -18 48 3 18 -7 15 -19 -7z"/>
<path d="M2973 1591 c1 -12 7 -21 14 -21 17 0 16 15 -1 30 -12 9 -15 8 -13 -9z"/>
<path d="M3187 1603 c-11 -10 -8 -51 3 -58 6 -4 10 8 10 29 0 37 -2 41 -13 29z"/>
<path d="M3237 1603 c-4 -3 -7 -20 -6 -37 l1 -31 9 34 c10 33 8 47 -4 34z"/>
<path d="M3274 1594 c3 -9 6 -25 6 -37 0 -15 3 -18 11 -10 12 12 2 63 -13 63
-6 0 -7 -7 -4 -16z"/>
<path d="M3330 1591 c-15 -30 -2 -53 29 -49 19 2 27 10 29 27 6 39 -39 56 -58
22z m48 -19 c3 -17 -2 -22 -17 -22 -14 0 -21 6 -21 18 0 38 33 41 38 4z"/>
<path d="M3424 1599 c-3 -6 2 -19 12 -30 10 -11 12 -19 6 -19 -7 0 -12 -4 -12
-9 0 -4 11 -6 25 -3 30 5 33 32 4 39 -13 4 -17 8 -9 13 8 5 7 9 -4 13 -8 3
-18 2 -22 -4z"/>
<path d="M3760 1573 c0 -43 5 -41 13 5 4 18 2 32 -3 32 -6 0 -10 -16 -10 -37z"/>
<path d="M3797 1599 c6 -8 13 -25 16 -39 4 -17 5 -15 4 9 -1 21 -8 36 -17 39
-12 4 -13 2 -3 -9z"/>
<path d="M3860 1601 c0 -6 5 -10 12 -8 12 2 14 -3 17 -38 0 -8 6 -15 12 -15 6
0 9 14 7 33 -2 24 -8 33 -25 35 -13 2 -23 -1 -23 -7z"/>
<path d="M3943 1593 c-4 -9 1 -21 11 -28 13 -10 14 -14 4 -18 -7 -3 -4 -6 8
-6 11 -1 23 2 27 5 10 10 -5 34 -22 34 -12 0 -13 2 -3 9 11 7 10 9 -3 14 -10
4 -18 0 -22 -10z"/>
<path d="M4323 1603 c-20 -7 -16 -63 3 -63 13 0 14 3 5 14 -9 11 -10 20 -1 35
6 12 9 21 8 20 -2 0 -9 -3 -15 -6z"/>
<path d="M4653 1602 c-29 -4 -29 -9 3 -38 31 -29 34 -29 34 -4 0 12 -7 20 -17
20 -15 0 -16 2 -3 10 19 11 11 17 -17 12z"/>
<path d="M4732 1598 c-28 -28 -3 -72 33 -57 19 7 19 8 -2 8 -28 1 -38 18 -22
37 15 18 7 28 -9 12z"/>
<path d="M4907 1603 c-4 -3 -7 -20 -6 -37 l1 -31 9 34 c10 33 8 47 -4 34z"/>
<path d="M4948 1604 c-7 -7 3 -53 13 -60 5 -3 9 8 9 25 0 28 -11 46 -22 35z"/>
<path d="M5050 1595 c-6 -8 -9 -23 -5 -33 6 -21 42 -36 51 -21 3 5 -2 9 -10 9
-15 0 -21 17 -17 48 2 16 -4 15 -19 -3z"/>
<path d="M5150 1598 c-25 -9 -25 -10 -5 -24 11 -9 19 -20 18 -25 -2 -5 4 -9
12 -9 8 0 15 9 15 20 0 12 -7 20 -17 20 -15 0 -16 2 -3 10 22 13 9 19 -20 8z"/>
<path d="M2380 1579 c0 -11 5 -17 10 -14 6 3 10 13 10 21 0 8 -4 14 -10 14 -5
0 -10 -9 -10 -21z"/>
<path d="M2426 1585 c-8 -22 4 -45 23 -45 13 0 13 2 2 9 -8 5 -12 18 -8 30 6
24 -8 29 -17 6z"/>
<path d="M3712 1570 c0 -19 2 -27 5 -17 2 9 2 25 0 35 -3 9 -5 1 -5 -18z"/>
<path d="M4075 1580 c4 -14 8 -35 9 -47 2 -34 12 -28 30 17 20 50 20 59 1 34
-15 -19 -15 -19 -31 1 -16 20 -16 19 -9 -5z"/>
<path d="M4407 1588 c-5 -16 3 -48 12 -48 3 0 6 14 6 30 0 30 -10 40 -18 18z"/>
<path d="M4455 1570 c0 -16 5 -28 10 -27 6 2 10 14 10 27 0 13 -4 25 -10 27
-5 2 -10 -10 -10 -27z"/>
<path d="M4546 1585 c-9 -26 5 -45 33 -44 17 1 20 3 9 6 -11 3 -18 14 -18 29
0 27 -15 32 -24 9z"/>
<path d="M4583 1585 c0 -8 7 -15 15 -15 7 0 12 5 10 12 -6 18 -25 21 -25 3z"/>
<path d="M4810 1570 c0 -18 5 -30 13 -30 9 0 12 10 9 30 -2 17 -8 30 -13 30
-5 0 -9 -13 -9 -30z"/>
<path d="M4850 1586 c0 -8 5 -18 10 -21 6 -3 10 3 10 14 0 12 -4 21 -10 21 -5
0 -10 -6 -10 -14z"/>
<path d="M5090 1579 c0 -11 5 -17 10 -14 6 3 10 13 10 21 0 8 -4 14 -10 14 -5
0 -10 -9 -10 -21z"/>
<path d="M3856 1561 c-4 -7 -5 -15 -2 -18 9 -9 19 4 14 18 -4 11 -6 11 -12 0z"/>
<path d="M985 886 c-55 -24 -75 -74 -51 -131 20 -48 74 -72 126 -56 46 14 69
39 77 84 7 44 -25 94 -65 103 -15 3 -34 7 -42 9 -8 2 -29 -2 -45 -9z m73 -52
c26 -18 28 -50 5 -76 -22 -24 -49 -23 -67 4 -21 30 -20 44 4 68 24 24 29 24
58 4z"/>
<path d="M1179 889 c-6 -3 -9 -43 -7 -95 l3 -89 68 -3 c68 -3 69 -2 104 34 31
33 36 36 45 21 47 -86 177 -82 207 5 16 45 14 54 -19 91 -50 57 -127 54 -174
-6 l-25 -32 -29 35 c-27 31 -35 35 -96 40 -37 3 -71 3 -77 -1z m113 -56 c36
-32 11 -98 -36 -91 -15 2 -22 11 -24 32 -8 67 20 95 60 59z m229 7 c36 -20 16
-100 -26 -100 -21 0 -45 29 -45 53 0 32 14 48 48 56 2 1 12 -4 23 -9z"/>
<path d="M1670 888 c-13 -8 -29 -26 -34 -41 -12 -32 6 -56 54 -72 16 -5 30
-14 29 -20 0 -10 -11 -11 -59 -4 -19 3 -26 -1 -28 -18 -3 -18 4 -23 45 -31 84
-18 145 27 110 82 -9 12 -30 27 -48 32 -18 5 -34 15 -37 22 -3 11 6 12 42 7
42 -7 46 -5 46 13 0 25 -6 30 -56 37 -24 3 -49 0 -64 -7z"/>
<path d="M3092 893 c-12 -2 -30 -16 -39 -30 -15 -22 -15 -28 -2 -51 8 -14 29
-30 48 -37 19 -6 37 -17 39 -23 5 -15 -33 -16 -60 -1 -25 14 -60 -13 -41 -32
34 -34 136 -29 160 8 15 22 15 28 2 51 -8 14 -29 30 -48 37 -55 18 -53 38 3
30 42 -7 46 -5 46 13 0 12 -3 23 -8 26 -13 8 -76 14 -100 9z"/>
<path d="M740 876 c0 -8 12 -21 28 -28 25 -12 27 -18 30 -81 3 -68 3 -68 30
-65 26 3 27 6 32 73 5 68 6 70 33 73 20 3 27 8 25 20 -5 24 -178 31 -178 8z"/>
<path d="M1890 885 c0 -2 13 -33 29 -67 17 -35 33 -75 36 -90 4 -22 11 -28 30
-28 19 0 25 5 25 23 0 12 16 55 35 95 l34 72 -27 0 c-21 0 -30 -7 -40 -30 -8
-16 -20 -30 -28 -30 -7 0 -20 14 -29 30 -11 21 -23 30 -40 30 -14 0 -25 -2
-25 -5z"/>
<path d="M2160 871 c0 -14 8 -21 28 -23 26 -3 27 -5 30 -76 3 -73 3 -73 30
-70 26 3 27 6 32 73 5 68 6 70 33 73 20 3 27 8 25 20 -3 14 -18 17 -91 20 -81
3 -87 1 -87 -17z"/>
<path d="M2377 870 c-30 -24 -43 -74 -28 -112 15 -39 55 -61 109 -60 39 0 51
5 74 31 39 43 38 92 -1 132 -25 24 -38 29 -79 29 -35 0 -57 -6 -75 -20z m101
-36 c27 -19 28 -55 3 -78 -37 -34 -93 15 -68 60 20 36 34 40 65 18z"/>
<path d="M2584 877 c-3 -8 -4 -49 -2 -93 l3 -79 68 -3 c63 -3 69 -1 97 27 41
41 41 91 1 132 -27 26 -36 29 -96 29 -46 0 -67 -4 -71 -13z m118 -44 c36 -32
11 -98 -36 -91 -15 2 -22 11 -24 32 -8 67 20 95 60 59z"/>
<path d="M2841 808 c-18 -46 -35 -89 -38 -95 -7 -19 45 -17 63 2 20 19 55 19
80 0 15 -12 74 -22 74 -12 0 1 -17 43 -39 92 -37 87 -40 90 -73 93 l-34 3 -33
-83z m79 -18 c0 -11 -7 -20 -15 -20 -15 0 -21 21 -8 33 12 13 23 7 23 -13z"/>
<path d="M3327 872 c-27 -29 -20 -50 24 -77 33 -21 40 -31 37 -53 -3 -23 -9
-28 -43 -33 l-40 -6 37 -2 c40 -1 68 19 68 49 0 17 -23 40 -65 66 -28 16 -13
62 23 67 l27 4 -26 2 c-14 0 -33 -7 -42 -17z"/>
<path d="M3475 864 c-32 -35 -34 -100 -4 -138 16 -20 29 -26 59 -26 45 0 75
26 85 71 21 93 -80 158 -140 93z m111 -16 c18 -34 15 -98 -6 -123 -7 -8 -27
-15 -46 -15 -42 0 -64 30 -64 85 0 56 22 85 65 85 29 0 37 -5 51 -32z"/>
<path d="M3667 868 c-9 -35 -11 -157 -4 -165 4 -3 7 16 8 43 1 27 4 60 9 74 7
24 8 23 27 -20 11 -25 23 -57 27 -72 10 -42 24 -34 41 25 29 100 46 102 53 7
2 -33 7 -58 11 -56 3 2 4 44 1 93 -6 109 -22 116 -54 24 -12 -36 -27 -66 -33
-68 -6 -2 -22 27 -35 64 -27 72 -42 87 -51 51z"/>
<path d="M3916 864 c-36 -36 -37 -110 -3 -142 50 -47 127 -20 141 49 6 32 -16
98 -37 111 -26 17 -74 8 -101 -18z m107 -13 c21 -36 22 -73 2 -111 -13 -24
-22 -30 -49 -30 -44 0 -69 28 -69 79 0 57 25 91 66 91 25 0 36 -6 50 -29z"/>
<path d="M4124 882 c-6 -4 -14 -17 -18 -29 -7 -23 -3 -28 58 -76 25 -20 27
-26 17 -45 -7 -13 -23 -22 -44 -25 -32 -4 -32 -4 5 -5 29 -2 40 3 48 19 14 24
5 69 -13 69 -6 0 -23 9 -36 19 -33 25 -23 68 17 74 26 4 26 4 2 5 -14 1 -30
-2 -36 -6z"/>
<path d="M4310 795 c0 -78 3 -95 15 -95 12 0 15 17 15 95 0 78 -3 95 -15 95
-12 0 -15 -17 -15 -95z"/>
<path d="M4394 877 c-3 -8 -4 -49 -2 -93 l3 -79 57 -3 c51 -3 61 0 83 22 35
35 35 107 0 141 -20 21 -34 25 -80 25 -37 0 -57 -4 -61 -13z m116 -32 c6 -8
12 -31 12 -52 0 -42 -31 -76 -66 -71 -19 3 -21 11 -24 71 l-3 67 34 0 c19 0
40 -7 47 -15z"/>
<path d="M4600 795 l0 -95 62 0 c63 0 72 15 13 22 -24 2 -30 8 -30 28 0 20 6
26 29 30 40 7 39 24 -1 28 -18 2 -34 7 -34 13 -5 29 -1 34 30 39 60 9 50 30
-13 30 l-56 0 0 -95z"/>
<path d="M4760 795 c0 -78 3 -95 15 -95 12 0 15 13 15 55 0 30 4 55 9 55 6 0
25 -25 43 -55 60 -101 83 -61 69 123 -1 8 -7 12 -13 10 -8 -3 -15 -28 -18 -59
l-5 -54 -38 58 c-25 37 -44 57 -57 57 -19 0 -20 -7 -20 -95z"/>
<path d="M4967 883 c-12 -11 -8 -171 4 -178 6 -4 12 -5 15 -3 4 5 12 61 13 96
1 32 15 21 51 -43 21 -37 38 -55 51 -55 17 0 19 8 19 95 0 78 -3 95 -15 95
-12 0 -15 -13 -15 -56 0 -50 -2 -55 -16 -44 -8 8 -27 33 -41 57 -23 39 -49 54
-66 36z"/>
<path d="M5211 868 c-5 -13 -18 -56 -29 -95 -20 -72 -20 -73 -1 -73 10 0 19 6
19 14 0 40 73 45 83 6 5 -21 37 -28 37 -9 0 6 -12 49 -26 95 -23 76 -28 84
-50 84 -16 0 -27 -8 -33 -22z m49 -75 c0 -14 -6 -23 -15 -23 -22 0 -29 24 -15
51 10 17 14 19 21 8 5 -8 9 -24 9 -36z"/>
</g>
</svg>
